<svg xmlns="http://www.w3.org/2000/svg"  viewBox="0 0 100 100" width="100px" height="100px"><path fill="#c7ede6" d="M88.494,55.791c0.299-0.614,0.563-1.259,0.792-1.935c2.622-7.739-1.343-17.008-9.693-19.245c-0.903-11.338-8.87-19.115-17.867-20.442c-10.298-1.519-19.733,5.023-22.872,15.422c-3.784-1.34-7.471-1.177-10.945,0.853c-1.576,0.729-3.018,1.805-4.312,3.22c-1.9,2.077-3.134,4.7-3.637,7.465c-0.745,0.117-1.477,0.235-2.167,0.482c-4.023,1.443-6.562,4.413-7.258,8.886c-0.434,2.785,0.441,5.564,0.929,6.687c1.927,4.436,6.396,6.952,10.936,6.286c0.226-0.033,0.554,0.069,0.749,0.232c0.24,7.091,3.683,13.362,8.848,16.944c8.287,5.748,18.949,3.977,25.675-3.905c2.882,2.948,6.313,4.38,10.342,3.86c4.006-0.517,7.117-2.728,9.387-6.322c1.048,0.282,2.043,0.689,3.071,0.801c4.025,0.44,7.294-1.161,9.692-4.78c0.918-1.385,1.786-3.181,1.786-6.328C91.95,60.727,90.662,57.772,88.494,55.791z"/><path fill="#fdfcef" d="M77.106,52.081c0,0,11.643,0,11.714,0c2.689,0,4.868-2.18,4.868-4.869c0-2.346-1.659-4.303-3.868-4.765c0.025-0.205,0.043-0.413,0.043-0.625c0-2.785-2.257-5.042-5.042-5.042c-1.644,0-3.1,0.791-4.02,2.008c-0.235-3.1-3.004-5.491-6.244-5.095c-2.369,0.29-4.328,2.121-4.764,4.467c-0.14,0.752-0.125,1.483,0.014,2.168c-0.635-0.684-1.539-1.115-2.546-1.115c-1.843,0-3.347,1.435-3.466,3.248c-0.837-0.185-1.747-0.173-2.706,0.187c-1.832,0.688-3.137,2.413-3.214,4.369c-0.108,2.778,2.111,5.064,4.864,5.064c0.209,0,0.944,0,1.114,0h10.109"/><path fill="#472b29" d="M88.82,52.582H77.106c-0.276,0-0.5-0.224-0.5-0.5s0.224-0.5,0.5-0.5H88.82c2.409,0,4.368-1.96,4.368-4.369c0-2.057-1.459-3.854-3.471-4.275c-0.255-0.053-0.426-0.293-0.394-0.552c0.023-0.185,0.039-0.372,0.039-0.562c0-2.505-2.038-4.543-4.542-4.543c-1.432,0-2.752,0.66-3.622,1.811c-0.125,0.166-0.337,0.236-0.54,0.178c-0.199-0.059-0.342-0.234-0.357-0.441c-0.104-1.371-0.775-2.658-1.842-3.533c-1.077-0.883-2.444-1.275-3.843-1.104c-2.156,0.265-3.938,1.935-4.333,4.063c-0.124,0.664-0.119,1.329,0.012,1.977c0.045,0.22-0.062,0.442-0.261,0.544c-0.201,0.104-0.443,0.06-0.595-0.104c-0.572-0.615-1.346-0.954-2.18-0.954c-1.562,0-2.865,1.222-2.967,2.78c-0.01,0.146-0.082,0.28-0.199,0.368c-0.118,0.087-0.267,0.118-0.409,0.088c-0.837-0.185-1.629-0.131-2.421,0.166c-1.662,0.624-2.823,2.199-2.89,3.92c-0.047,1.202,0.385,2.34,1.216,3.204c0.832,0.865,1.95,1.341,3.148,1.341h11.223c0.276,0,0.5,0.224,0.5,0.5s-0.224,0.5-0.5,0.5H62.739c-1.473,0-2.848-0.585-3.869-1.647c-1.021-1.062-1.552-2.46-1.495-3.937c0.083-2.118,1.504-4.054,3.538-4.816c0.796-0.301,1.619-0.401,2.457-0.298c0.376-1.815,1.99-3.169,3.891-3.169c0.681,0,1.347,0.178,1.934,0.506c0-0.383,0.035-0.767,0.106-1.15c0.475-2.553,2.611-4.557,5.195-4.873c1.673-0.205,3.308,0.267,4.599,1.324c0.999,0.818,1.708,1.94,2.029,3.177c1.008-0.911,2.309-1.418,3.697-1.418c3.056,0,5.542,2.486,5.542,5.543c0,0.082-0.002,0.164-0.006,0.246c2.245,0.671,3.832,2.767,3.832,5.144C94.188,50.173,91.78,52.582,88.82,52.582z"/><path fill="#fdfcef" d="M74.284,41.357c-1.801-0.118-3.351,1.126-3.462,2.778c-0.014,0.205-0.005,0.407,0.025,0.604c-0.347-0.392-0.862-0.659-1.452-0.697c-1.08-0.071-2.013,0.643-2.149,1.613c-0.197-0.054-0.401-0.09-0.614-0.104c-1.576-0.103-2.932,0.985-3.029,2.431"/><path fill="#472b29" d="M63.604,48.231c-0.006,0-0.012,0-0.017-0.001c-0.138-0.009-0.242-0.128-0.233-0.266c0.106-1.581,1.573-2.775,3.295-2.663c0.135,0.008,0.271,0.025,0.406,0.052c0.273-0.963,1.262-1.64,2.356-1.562c0.423,0.027,0.82,0.159,1.158,0.38c0.001-0.018,0.002-0.036,0.003-0.054c0.121-1.787,1.784-3.148,3.728-3.01c0.138,0.009,0.242,0.128,0.233,0.266c-0.009,0.137-0.118,0.253-0.266,0.232c-1.66-0.087-3.094,1.033-3.196,2.545c-0.012,0.183-0.004,0.368,0.023,0.55c0.017,0.109-0.041,0.217-0.141,0.264c-0.098,0.047-0.219,0.022-0.293-0.061c-0.322-0.362-0.777-0.58-1.282-0.614c-0.946-0.05-1.767,0.554-1.884,1.398c-0.01,0.071-0.05,0.135-0.11,0.175s-0.133,0.051-0.204,0.032c-0.188-0.051-0.377-0.083-0.564-0.096c-1.422-0.078-2.676,0.893-2.764,2.198C63.844,48.129,63.734,48.231,63.604,48.231z"/><path fill="#fdfcef" d="M90.791,43.019c-1.692-0.798-3.649-0.233-4.371,1.261c-0.09,0.186-0.156,0.377-0.2,0.571"/><path fill="#472b29" d="M86.219,45.101c-0.018,0-0.037-0.002-0.056-0.006c-0.135-0.031-0.219-0.165-0.188-0.3c0.049-0.215,0.123-0.425,0.219-0.624c0.78-1.616,2.89-2.234,4.703-1.38c0.125,0.06,0.179,0.208,0.12,0.333c-0.058,0.125-0.208,0.176-0.333,0.12c-1.568-0.741-3.379-0.225-4.04,1.144c-0.08,0.166-0.141,0.34-0.182,0.519C86.437,45.023,86.334,45.101,86.219,45.101z"/><path fill="#fff" d="M18.447 47.861H8.458c-.276 0-.5-.224-.5-.5s.224-.5.5-.5h9.989c.276 0 .5.224.5.5S18.724 47.861 18.447 47.861zM21.317 47.861h-1.44c-.276 0-.5-.224-.5-.5s.224-.5.5-.5h1.44c.276 0 .5.224.5.5S21.593 47.861 21.317 47.861zM25.355 47.861H22.82c-.276 0-.5-.224-.5-.5s.224-.5.5-.5h2.535c.276 0 .5.224.5.5S25.631 47.861 25.355 47.861zM25.355 49.718h-9.577c-.276 0-.5-.224-.5-.5s.224-.5.5-.5h9.577c.276 0 .5.224.5.5S25.631 49.718 25.355 49.718zM14.053 49.718h-.578c-.276 0-.5-.224-.5-.5s.224-.5.5-.5h.578c.276 0 .5.224.5.5S14.33 49.718 14.053 49.718zM11.687 49.718h-1.451c-.276 0-.5-.224-.5-.5s.224-.5.5-.5h1.451c.276 0 .5.224.5.5S11.963 49.718 11.687 49.718zM20.785 46.004h-5.007c-.276 0-.5-.224-.5-.5s.224-.5.5-.5h5.007c.276 0 .5.224.5.5S21.061 46.004 20.785 46.004zM20.785 44.146h-1.252c-.276 0-.5-.224-.5-.5s.224-.5.5-.5h1.252c.276 0 .5.224.5.5S21.061 44.146 20.785 44.146zM17.53 51.576h-1.751c-.276 0-.5-.224-.5-.5s.224-.5.5-.5h1.751c.276 0 .5.224.5.5S17.806 51.576 17.53 51.576zM71.407 21.692h-9.989c-.276 0-.5-.224-.5-.5s.224-.5.5-.5h9.989c.276 0 .5.224.5.5S71.684 21.692 71.407 21.692zM74.277 21.692h-1.439c-.276 0-.5-.224-.5-.5s.224-.5.5-.5h1.439c.276 0 .5.224.5.5S74.553 21.692 74.277 21.692zM78.315 21.692H75.78c-.276 0-.5-.224-.5-.5s.224-.5.5-.5h2.535c.276 0 .5.224.5.5S78.591 21.692 78.315 21.692zM76.297 17.977H66.72c-.276 0-.5-.224-.5-.5s.224-.5.5-.5h9.577c.276 0 .5.224.5.5S76.573 17.977 76.297 17.977zM64.996 17.977h-.578c-.276 0-.5-.224-.5-.5s.224-.5.5-.5h.578c.276 0 .5.224.5.5S65.272 17.977 64.996 17.977zM62.629 17.977h-1.45c-.276 0-.5-.224-.5-.5s.224-.5.5-.5h1.45c.276 0 .5.224.5.5S62.905 17.977 62.629 17.977zM73.745 19.835h-5.007c-.276 0-.5-.224-.5-.5s.224-.5.5-.5h5.007c.276 0 .5.224.5.5S74.021 19.835 73.745 19.835z"/><path fill="#fff" d="M73.745 17.977h-1.252c-.276 0-.5-.224-.5-.5s.224-.5.5-.5h1.252c.276 0 .5.224.5.5S74.021 17.977 73.745 17.977zM67.288 19.835h-1.751c-.276 0-.5-.224-.5-.5s.224-.5.5-.5h1.751c.276 0 .5.224.5.5S67.565 19.835 67.288 19.835z"/><path fill="#fdfcef" d="M36.44,68.761c1.876,0,3.502,0,3.526,0c2.101,0,3.805-1.667,3.805-3.724c0-1.794-1.297-3.292-3.023-3.645c0.02-0.157,0.033-0.316,0.033-0.478c0-2.13-1.764-3.857-3.941-3.857c-1.285,0-2.423,0.605-3.142,1.536c-0.184-2.371-2.348-4.2-4.88-3.897c-1.851,0.222-3.383,1.622-3.723,3.417c-0.109,0.576-0.098,1.134,0.011,1.659c-0.496-0.523-1.203-0.853-1.99-0.853c-1.44,0-2.616,1.097-2.709,2.484c-0.654-0.142-1.365-0.132-2.115,0.143c-1.432,0.526-2.452,1.846-2.512,3.342c-0.085,2.125,1.65,3.873,3.802,3.873c0.163,0,0.738,0,0.87,0h7.901 M29.99,68.761h0.358"/><path fill="#472b29" d="M39.966,69.261h-3.525c-0.276,0-0.5-0.224-0.5-0.5s0.224-0.5,0.5-0.5h3.525c1.822,0,3.305-1.446,3.305-3.224c0-1.518-1.103-2.844-2.623-3.154c-0.256-0.053-0.428-0.293-0.396-0.552c0.017-0.137,0.029-0.275,0.029-0.417c0-1.852-1.543-3.357-3.441-3.357c-1.087,0-2.088,0.489-2.746,1.342c-0.127,0.164-0.341,0.231-0.539,0.174c-0.198-0.06-0.339-0.234-0.355-0.44c-0.079-1.015-0.562-1.935-1.363-2.592c-0.825-0.676-1.875-0.978-2.959-0.849c-1.639,0.196-2.992,1.436-3.292,3.015c-0.093,0.491-0.09,0.983,0.01,1.464c0.045,0.219-0.06,0.441-0.258,0.545c-0.198,0.103-0.441,0.063-0.595-0.1c-0.426-0.449-1.004-0.696-1.627-0.696c-1.164,0-2.134,0.887-2.209,2.018c-0.01,0.146-0.082,0.279-0.198,0.366s-0.263,0.12-0.407,0.089c-0.636-0.137-1.236-0.097-1.836,0.124c-1.256,0.461-2.134,1.624-2.185,2.892c-0.035,0.871,0.281,1.7,0.891,2.334c0.631,0.657,1.488,1.02,2.412,1.02h8.771c0.276,0,0.5,0.224,0.5,0.5s-0.224,0.5-0.5,0.5h-8.771c-1.181,0-2.323-0.483-3.133-1.327c-0.799-0.832-1.214-1.921-1.168-3.065c0.066-1.668,1.207-3.192,2.839-3.792c0.607-0.223,1.233-0.303,1.872-0.243c0.344-1.39,1.624-2.414,3.124-2.414c0.49,0,0.971,0.112,1.406,0.32c0.009-0.239,0.037-0.48,0.082-0.72c0.38-2.002,2.089-3.573,4.155-3.82c1.359-0.162,2.676,0.218,3.712,1.068c0.744,0.61,1.272,1.402,1.54,2.29c0.788-0.645,1.777-1.001,2.83-1.001c2.449,0,4.441,1.955,4.441,4.357c0,0.033-0.001,0.067-0.001,0.101c1.757,0.552,2.991,2.18,2.991,4.022C44.271,67.367,42.34,69.261,39.966,69.261z M30.348,69.261h-0.358c-0.276,0-0.5-0.224-0.5-0.5s0.224-0.5,0.5-0.5h0.358c0.276,0,0.5,0.224,0.5,0.5S30.624,69.261,30.348,69.261z"/><path fill="#472b29" d="M38.265 63.481c-.018 0-.036-.002-.055-.006-.135-.03-.219-.164-.189-.299.038-.166.094-.327.169-.479.602-1.219 2.263-1.671 3.708-1.001.125.058.18.206.122.331-.059.126-.206.179-.332.122-1.198-.552-2.566-.208-3.049.77-.058.116-.101.239-.129.366C38.483 63.402 38.38 63.481 38.265 63.481zM33.128 69.261h-1.103c-.276 0-.5-.224-.5-.5s.224-.5.5-.5h1.103c.276 0 .5.224.5.5S33.405 69.261 33.128 69.261z"/><path fill="#8889b9" d="M67.638,69.619h-12.92H35.089c-1.734,0-3.152-1.419-3.152-3.152V33.919c0-1.734,1.419-3.152,3.152-3.152h32.548c1.734,0,3.152,1.419,3.152,3.152v32.548C70.79,68.201,69.371,69.619,67.638,69.619z"/><path fill="#472b29" d="M57.718,70.32H35.089c-2.124,0-3.853-1.729-3.853-3.853V33.919c0-2.124,1.729-3.853,3.853-3.853h32.548c2.124,0,3.853,1.729,3.853,3.853v2.534c0,0.387-0.313,0.7-0.7,0.7s-0.7-0.313-0.7-0.7v-2.534c0-1.353-1.1-2.452-2.452-2.452H35.089c-1.352,0-2.452,1.1-2.452,2.452v32.549c0,1.353,1.1,2.452,2.452,2.452h22.629c0.387,0,0.7,0.313,0.7,0.7S58.105,70.32,57.718,70.32z"/><path fill="#d4dae8" d="M36.528 43.129L36.528 35.358 66.198 35.358 66.198 43.129 41.473 43.129"/><path fill="#472b29" d="M66.198,43.478H41.473c-0.193,0-0.35-0.156-0.35-0.35s0.157-0.35,0.35-0.35h24.375v-7.071H36.879v7.421c0,0.193-0.157,0.35-0.35,0.35s-0.35-0.156-0.35-0.35v-7.771c0-0.193,0.157-0.35,0.35-0.35h29.669c0.193,0,0.35,0.156,0.35,0.35v7.771C66.548,43.322,66.391,43.478,66.198,43.478z"/><path fill="#ef9922" d="M64.019,65.028H38.708c-1.199,0-2.179-0.981-2.179-2.179V48.84c0-1.199,0.981-2.179,2.179-2.179h25.311c1.199,0,2.179,0.981,2.179,2.179v14.008C66.198,64.047,65.217,65.028,64.019,65.028z"/><path fill="#472b29" d="M64.019 65.403H38.708c-1.408 0-2.554-1.146-2.554-2.555V48.84c0-1.408 1.146-2.555 2.554-2.555h25.311c1.408 0 2.554 1.146 2.554 2.555v14.008C66.573 64.256 65.427 65.403 64.019 65.403zM38.708 47.036c-.995 0-1.804.81-1.804 1.805v14.008c0 .995.81 1.805 1.804 1.805h25.311c.995 0 1.804-.81 1.804-1.805V48.84c0-.995-.81-1.805-1.804-1.805H38.708zM62.235 36.953h1.019c.278 0 .516.1.716.3.199.2.299.438.299.714v2.543c0 .275-.099.512-.299.713-.199.201-.438.301-.716.301h-1.019c-.278 0-.516-.1-.716-.299-.199-.199-.299-.438-.299-.716v-2.543c0-.278.1-.516.299-.716C61.718 37.052 61.957 36.953 62.235 36.953zM63.244 37.881c-.07-.279-.236-.419-.5-.419-.14 0-.259.05-.359.149s-.15.218-.15.356v1.729L63.244 37.881zM62.246 40.589c.025.141.08.248.163.319.083.071.195.107.334.107.141 0 .262-.05.361-.15.099-.1.149-.218.149-.355v-1.726L62.246 40.589z"/><path fill="#472b29" d="M51.363 65.228c-.11 0-.2-.09-.2-.2v-2.119c0-.11.09-.2.2-.2s.2.09.2.2v2.119C51.564 65.138 51.474 65.228 51.363 65.228zM51.363 60.283c-.11 0-.2-.09-.2-.2V46.661c0-.11.09-.2.2-.2s.2.09.2.2v13.422C51.564 60.193 51.474 60.283 51.363 60.283zM66.198 56.045h-1.854c-.11 0-.2-.09-.2-.2s.09-.2.2-.2h1.854c.11 0 .2.09.2.2S66.308 56.045 66.198 56.045zM63.125 56.045h-.927c-.11 0-.2-.09-.2-.2s.09-.2.2-.2h.927c.11 0 .2.09.2.2S63.235 56.045 63.125 56.045z"/><path fill="#472b29" d="M61.281 56.045H36.529c-.11 0-.2-.09-.2-.2s.09-.2.2-.2h24.753c.11 0 .2.09.2.2S61.392 56.045 61.281 56.045zM46.368 51.557H42.13c-.193 0-.35-.156-.35-.35s.157-.35.35-.35h4.239c.193 0 .35.156.35.35S46.562 51.557 46.368 51.557zM60.812 51.557h-3.885c-.193 0-.35-.156-.35-.35s.157-.35.35-.35h3.885c.193 0 .35.156.35.35S61.005 51.557 60.812 51.557z"/><path fill="#472b29" d="M58.869 53.5c-.193 0-.35-.156-.35-.35v-3.885c0-.193.157-.35.35-.35s.35.156.35.35v3.885C59.219 53.343 59.062 53.5 58.869 53.5zM42.657 62.202c-.089 0-.179-.034-.248-.103-.137-.137-.137-.357 0-.494l3.184-3.185c.137-.137.358-.137.495 0s.137.357 0 .494l-3.184 3.185C42.836 62.168 42.746 62.202 42.657 62.202z"/><path fill="#472b29" d="M45.841 62.202c-.089 0-.179-.034-.248-.103l-3.184-3.185c-.137-.137-.137-.357 0-.494s.358-.137.495 0l3.184 3.185c.137.137.137.357 0 .494C46.02 62.168 45.93 62.202 45.841 62.202zM60.635 59.874h-3.532c-.193 0-.35-.156-.35-.35s.157-.35.35-.35h3.532c.193 0 .35.156.35.35S60.828 59.874 60.635 59.874zM60.635 61.845h-3.532c-.193 0-.35-.156-.35-.35s.157-.35.35-.35h3.532c.193 0 .35.156.35.35S60.828 61.845 60.635 61.845zM40.061 43.478h-1.413c-.193 0-.35-.156-.35-.35s.157-.35.35-.35h1.413c.193 0 .35.156.35.35S40.254 43.478 40.061 43.478zM51.363 61.913c-.11 0-.2-.09-.2-.2v-.892c0-.11.09-.2.2-.2s.2.09.2.2v.892C51.564 61.823 51.474 61.913 51.363 61.913z"/><path fill="#f1bc19" d="M68.458,66.843v2.977c0,0.818,3.953,1.482,8.829,1.482c4.876,0,8.829-0.663,8.829-1.482v-2.977H68.458z"/><path fill="#472b29" d="M77.287,71.677c-0.942,0-9.204-0.052-9.204-1.856v-2.978c0-0.207,0.168-0.375,0.375-0.375h17.658c0.207,0,0.375,0.168,0.375,0.375v2.978C86.491,71.626,78.229,71.677,77.287,71.677z M68.833,67.218v2.603c0.212,0.346,3.003,1.106,8.454,1.106s8.242-0.761,8.463-1.149l-0.008-2.56H68.833z"/><path fill="#ffd683" d="M77.287 65.368A8.829 1.482 0 1 0 77.287 68.332A8.829 1.482 0 1 0 77.287 65.368Z"/><path fill="#472b29" d="M77.287,68.707c-0.942,0-9.204-0.052-9.204-1.856s8.262-1.856,9.204-1.856s9.204,0.052,9.204,1.856S78.229,68.707,77.287,68.707z M77.287,65.744c-5.451,0-8.242,0.761-8.463,1.149c0.221,0.303,3.012,1.063,8.463,1.063c5.257,0,8.04-0.708,8.43-1.106C85.327,66.452,82.544,65.744,77.287,65.744z M85.75,66.893h0.009H85.75z"/><path fill="#f1bc19" d="M68.458,61.923V64.9c0,0.818,3.953,1.482,8.829,1.482c4.876,0,8.829-0.663,8.829-1.482v-2.977H68.458z"/><path fill="#472b29" d="M77.287,66.756c-0.942,0-9.204-0.052-9.204-1.856v-2.978c0-0.207,0.168-0.375,0.375-0.375h17.658c0.207,0,0.375,0.168,0.375,0.375V64.9C86.491,66.705,78.229,66.756,77.287,66.756z M68.833,62.297V64.9c0.212,0.346,3.003,1.106,8.454,1.106s8.242-0.761,8.463-1.149l-0.008-2.56H68.833z"/><path fill="#ffd683" d="M77.287 60.447A8.829 1.482 0 1 0 77.287 63.411A8.829 1.482 0 1 0 77.287 60.447Z"/><path fill="#472b29" d="M77.287,63.787c-0.942,0-9.204-0.052-9.204-1.857c0-1.805,8.262-1.856,9.204-1.856s9.204,0.052,9.204,1.856C86.491,63.735,78.229,63.787,77.287,63.787z M77.287,60.823c-5.451,0-8.242,0.761-8.463,1.149c0.221,0.303,3.012,1.064,8.463,1.064c5.257,0,8.04-0.708,8.43-1.107C85.327,61.531,82.544,60.823,77.287,60.823z M85.75,61.972h0.009H85.75z"/><path fill="#f1bc19" d="M68.458,57.002v2.977c0,0.818,3.953,1.482,8.829,1.482c4.876,0,8.829-0.663,8.829-1.482v-2.977H68.458z"/><path fill="#472b29" d="M77.287,61.836c-0.942,0-9.204-0.052-9.204-1.856v-2.978c0-0.207,0.168-0.375,0.375-0.375h17.658c0.207,0,0.375,0.168,0.375,0.375v2.978C86.491,61.784,78.229,61.836,77.287,61.836z M68.833,57.377v2.603c0.212,0.346,3.003,1.106,8.454,1.106s8.242-0.761,8.463-1.149l-0.008-2.56H68.833z"/><path fill="#ffd683" d="M77.287 55.527A8.829 1.482 0 1 0 77.287 58.491A8.829 1.482 0 1 0 77.287 55.527Z"/><path fill="#472b29" d="M77.287,58.866c-0.942,0-9.204-0.052-9.204-1.857c0-1.805,8.262-1.856,9.204-1.856s9.204,0.052,9.204,1.856C86.491,58.814,78.229,58.866,77.287,58.866z M77.287,55.902c-5.451,0-8.242,0.761-8.463,1.149c0.221,0.303,3.012,1.064,8.463,1.064c5.257,0,8.04-0.708,8.43-1.107C85.327,56.61,82.544,55.902,77.287,55.902z M85.75,57.051h0.009H85.75z"/><path fill="#f1bc19" d="M68.458,52.081v2.977c0,0.818,3.953,1.482,8.829,1.482s8.829-0.663,8.829-1.482v-2.977H68.458z"/><path fill="#472b29" d="M77.287,56.915c-0.942,0-9.204-0.052-9.204-1.856v-2.977c0-0.207,0.168-0.375,0.375-0.375h17.658c0.207,0,0.375,0.168,0.375,0.375v2.977C86.491,56.863,78.229,56.915,77.287,56.915z M68.833,52.457v2.602c0.212,0.346,3.003,1.106,8.454,1.106s8.242-0.761,8.463-1.149l-0.008-2.559H68.833z"/><path fill="#ffd683" d="M77.287 50.606A8.829 1.482 0 1 0 77.287 53.57A8.829 1.482 0 1 0 77.287 50.606Z"/><path fill="#472b29" d="M77.287,53.945c-0.942,0-9.204-0.052-9.204-1.857c0-1.805,8.262-1.856,9.204-1.856s9.204,0.052,9.204,1.856C86.491,53.893,78.229,53.945,77.287,53.945z M77.287,50.981c-5.451,0-8.242,0.761-8.463,1.149c0.22,0.303,3.011,1.064,8.463,1.064c5.259,0,8.042-0.708,8.43-1.107C85.328,51.689,82.545,50.981,77.287,50.981z M85.75,52.13h0.009H85.75z"/><g><path fill="#f1bc19" d="M60.121,68.766v2.977c0,0.818,3.953,1.482,8.829,1.482s8.829-0.663,8.829-1.482v-2.977H60.121z"/><path fill="#472b29" d="M68.95,73.6c-0.942,0-9.204-0.052-9.204-1.856v-2.978c0-0.207,0.168-0.375,0.375-0.375H77.78c0.207,0,0.375,0.168,0.375,0.375v2.978C78.155,73.548,69.892,73.6,68.95,73.6z M60.496,69.141v2.603c0.212,0.346,3.003,1.106,8.454,1.106s8.242-0.761,8.463-1.149l-0.008-2.56H60.496z"/><g><path fill="#ffd683" d="M68.95 67.291A8.829 1.482 0 1 0 68.95 70.255A8.829 1.482 0 1 0 68.95 67.291Z"/><path fill="#472b29" d="M68.95,70.629c-0.942,0-9.204-0.052-9.204-1.856s8.262-1.856,9.204-1.856s9.204,0.052,9.204,1.856S69.892,70.629,68.95,70.629z M68.95,67.667c-5.451,0-8.242,0.761-8.463,1.149c0.221,0.303,3.012,1.063,8.463,1.063c5.257,0,8.04-0.708,8.43-1.106C76.99,68.375,74.208,67.667,68.95,67.667z M77.413,68.816h0.009H77.413z"/></g></g><g><path fill="#f1bc19" d="M60.121,63.844v2.977c0,0.818,3.953,1.482,8.829,1.482s8.829-0.663,8.829-1.482v-2.977H60.121z"/><path fill="#472b29" d="M68.95,68.678c-0.942,0-9.204-0.052-9.204-1.857v-2.977c0-0.207,0.168-0.375,0.375-0.375H77.78c0.207,0,0.375,0.168,0.375,0.375v2.977C78.155,68.627,69.892,68.678,68.95,68.678z M60.496,64.219v2.602c0.211,0.346,3.002,1.107,8.454,1.107s8.243-0.762,8.463-1.15l-0.008-2.559H60.496z"/><g><path fill="#ffd683" d="M68.95 62.369A8.829 1.482 0 1 0 68.95 65.333A8.829 1.482 0 1 0 68.95 62.369Z"/><path fill="#472b29" d="M68.95,65.708c-0.942,0-9.204-0.052-9.204-1.856c0-1.806,8.262-1.857,9.204-1.857s9.204,0.052,9.204,1.857C78.155,65.656,69.892,65.708,68.95,65.708z M68.95,62.744c-5.451,0-8.242,0.762-8.463,1.15c0.221,0.303,3.012,1.063,8.463,1.063c5.257,0,8.04-0.708,8.43-1.106C76.99,63.452,74.208,62.744,68.95,62.744z M77.413,63.894h0.009H77.413z"/></g></g><g><path fill="#f1bc19" d="M60.121,59.152v2.977c0,0.818,3.953,1.482,8.829,1.482c4.876,0,8.829-0.663,8.829-1.482v-2.977H60.121z"/><path fill="#472b29" d="M68.95,63.986c-0.942,0-9.204-0.052-9.204-1.856v-2.978c0-0.207,0.168-0.375,0.375-0.375H77.78c0.207,0,0.375,0.168,0.375,0.375v2.978C78.155,63.934,69.892,63.986,68.95,63.986z M60.496,59.527v2.603c0.212,0.346,3.003,1.106,8.454,1.106s8.242-0.761,8.463-1.149l-0.008-2.56H60.496z"/><g><path fill="#ffd683" d="M68.95 57.677A8.829 1.482 0 1 0 68.95 60.641A8.829 1.482 0 1 0 68.95 57.677Z"/><path fill="#472b29" d="M68.95,61.016c-0.942,0-9.204-0.052-9.204-1.857c0-1.805,8.262-1.856,9.204-1.856s9.204,0.052,9.204,1.856C78.155,60.964,69.892,61.016,68.95,61.016z M68.95,58.052c-5.451,0-8.242,0.761-8.463,1.149c0.221,0.303,3.012,1.064,8.463,1.064c5.257,0,8.04-0.708,8.43-1.107C76.99,58.76,74.208,58.052,68.95,58.052z M77.413,59.202h0.009H77.413z"/></g></g><g><path fill="#f1bc19" d="M68.458,47.161v2.977c0,0.818,3.953,1.482,8.829,1.482s8.829-0.663,8.829-1.482v-2.977H68.458z"/><path fill="#472b29" d="M77.287,51.995c-0.942,0-9.204-0.052-9.204-1.857v-2.977c0-0.207,0.168-0.375,0.375-0.375h17.658c0.207,0,0.375,0.168,0.375,0.375v2.977C86.491,51.943,78.229,51.995,77.287,51.995z M68.833,47.536v2.602c0.212,0.346,3.003,1.107,8.454,1.107s8.242-0.762,8.463-1.15l-0.008-2.559H68.833z"/><g><path fill="#ffd683" d="M77.287 45.685A8.829 1.482 0 1 0 77.287 48.649A8.829 1.482 0 1 0 77.287 45.685Z"/><path fill="#472b29" d="M77.287,49.024c-0.942,0-9.204-0.052-9.204-1.856c0-1.806,8.262-1.857,9.204-1.857s9.204,0.052,9.204,1.857C86.491,48.972,78.229,49.024,77.287,49.024z M77.287,46.06c-5.451,0-8.242,0.762-8.463,1.15c0.221,0.303,3.012,1.063,8.463,1.063c5.257,0,8.04-0.708,8.43-1.106C85.327,46.768,82.544,46.06,77.287,46.06z M85.75,47.211h0.009H85.75z"/></g></g><g><path fill="#f1bc19" d="M68.458,42.24v2.977c0,0.818,3.953,1.482,8.829,1.482s8.829-0.663,8.829-1.482V42.24H68.458z"/><path fill="#472b29" d="M77.287,47.074c-0.942,0-9.204-0.052-9.204-1.857V42.24c0-0.207,0.168-0.375,0.375-0.375h17.658c0.207,0,0.375,0.168,0.375,0.375v2.977C86.491,47.022,78.229,47.074,77.287,47.074z M68.833,42.615v2.602c0.212,0.346,3.003,1.107,8.454,1.107s8.242-0.762,8.463-1.15l-0.008-2.559H68.833z"/><g><path fill="#ffd683" d="M77.287 40.765A8.829 1.482 0 1 0 77.287 43.729A8.829 1.482 0 1 0 77.287 40.765Z"/><path fill="#472b29" d="M77.287,44.103c-0.942,0-9.204-0.052-9.204-1.856c0-1.806,8.262-1.857,9.204-1.857s9.204,0.052,9.204,1.857C86.491,44.051,78.229,44.103,77.287,44.103z M77.287,41.139c-5.451,0-8.242,0.762-8.463,1.15c0.221,0.303,3.012,1.063,8.463,1.063c5.257,0,8.04-0.708,8.43-1.106C85.327,41.847,82.544,41.139,77.287,41.139z M85.75,42.29h0.009H85.75z"/></g></g></svg>