<svg xmlns="http://www.w3.org/2000/svg"  viewBox="0 0 100 100" width="100px" height="100px"><path fill="#c7ede6" d="M88.494,56.043c0.299-0.614,0.563-1.259,0.792-1.935c2.622-7.739-1.343-17.008-9.693-19.245c-0.903-11.338-8.87-19.115-17.867-20.442c-10.298-1.519-19.733,5.023-22.872,15.422c-3.784-1.34-7.471-1.177-10.945,0.853c-1.576,0.729-3.018,1.805-4.312,3.22c-1.9,2.077-3.134,4.7-3.637,7.465c-0.745,0.117-1.477,0.235-2.167,0.482c-4.023,1.443-6.562,4.413-7.258,8.886c-0.434,2.785,0.441,5.564,0.929,6.687c1.927,4.436,6.396,6.952,10.936,6.286c0.226-0.033,0.554,0.069,0.749,0.232c0.24,7.091,3.683,13.362,8.848,16.944c8.287,5.748,18.949,3.977,25.675-3.905c2.882,2.948,6.313,4.38,10.342,3.86c4.006-0.517,7.117-2.728,9.387-6.322c1.048,0.282,2.043,0.689,3.071,0.801c4.025,0.44,7.294-1.161,9.692-4.78c0.918-1.385,1.786-3.181,1.786-6.328C91.95,60.979,90.662,58.024,88.494,56.043z"/><path fill="#fdfcef" d="M72.138,67.014c0,0,11.643,0,11.714,0c2.689,0,4.868-2.18,4.868-4.869c0-2.346-1.659-4.303-3.868-4.765c0.025-0.205,0.043-0.413,0.043-0.625c0-2.785-2.257-5.042-5.042-5.042c-1.644,0-3.1,0.791-4.02,2.008c-0.235-3.1-3.004-5.491-6.244-5.095c-2.369,0.29-4.328,2.121-4.764,4.467c-0.14,0.752-0.125,1.483,0.014,2.168c-0.635-0.684-1.539-1.115-2.546-1.115c-1.843,0-3.347,1.435-3.466,3.248c-0.837-0.185-1.747-0.173-2.706,0.187c-1.832,0.688-3.137,2.413-3.214,4.369c-0.108,2.778,2.111,5.064,4.864,5.064c0.209,0,0.944,0,1.114,0h10.109"/><path fill="#472b29" d="M83.852,67.514H72.139c-0.276,0-0.5-0.224-0.5-0.5s0.224-0.5,0.5-0.5h11.713c2.409,0,4.369-1.96,4.369-4.369c0-2.057-1.459-3.854-3.471-4.275c-0.254-0.053-0.426-0.293-0.394-0.551c0.023-0.185,0.039-0.372,0.039-0.563c0-2.505-2.038-4.543-4.542-4.543c-1.432,0-2.752,0.66-3.622,1.811c-0.125,0.166-0.338,0.238-0.54,0.178c-0.199-0.059-0.342-0.234-0.357-0.441c-0.104-1.371-0.775-2.658-1.842-3.533c-1.077-0.882-2.442-1.274-3.843-1.104c-2.156,0.265-3.938,1.935-4.333,4.063c-0.124,0.664-0.119,1.329,0.012,1.977c0.045,0.22-0.062,0.441-0.261,0.544c-0.199,0.104-0.442,0.06-0.595-0.104c-0.572-0.616-1.346-0.955-2.18-0.955c-1.562,0-2.864,1.221-2.966,2.779c-0.01,0.146-0.082,0.28-0.199,0.367c-0.118,0.088-0.265,0.119-0.408,0.089c-0.839-0.187-1.631-0.13-2.422,0.167c-1.661,0.624-2.822,2.199-2.89,3.92c-0.047,1.202,0.385,2.34,1.216,3.204c0.832,0.865,1.95,1.341,3.148,1.341h11.223c0.276,0,0.5,0.224,0.5,0.5s-0.224,0.5-0.5,0.5H57.772c-1.473,0-2.848-0.585-3.869-1.647c-1.021-1.062-1.552-2.46-1.495-3.937c0.083-2.118,1.504-4.054,3.537-4.816c0.796-0.3,1.622-0.399,2.457-0.299c0.376-1.814,1.99-3.168,3.89-3.168c0.681,0,1.347,0.178,1.934,0.506c0-0.382,0.035-0.767,0.106-1.15c0.475-2.553,2.611-4.557,5.195-4.873c1.675-0.203,3.309,0.267,4.599,1.324c0.999,0.818,1.708,1.94,2.029,3.177c1.008-0.911,2.309-1.418,3.697-1.418c3.056,0,5.542,2.486,5.542,5.543c0,0.082-0.002,0.164-0.007,0.246c2.245,0.671,3.832,2.767,3.832,5.144C89.221,65.106,86.812,67.514,83.852,67.514z"/><path fill="#fdfcef" d="M69.317,56.289c-1.801-0.118-3.351,1.126-3.462,2.778c-0.014,0.205-0.005,0.407,0.025,0.604c-0.347-0.392-0.862-0.659-1.452-0.697c-1.08-0.071-2.013,0.643-2.149,1.613c-0.197-0.054-0.401-0.09-0.614-0.104c-1.576-0.103-2.932,0.985-3.029,2.431"/><path fill="#472b29" d="M58.637,63.163c-0.006,0-0.012,0-0.017-0.001c-0.138-0.009-0.242-0.128-0.233-0.266c0.106-1.581,1.58-2.772,3.295-2.662c0.135,0.008,0.271,0.025,0.406,0.052c0.273-0.963,1.261-1.642,2.356-1.562c0.423,0.027,0.82,0.159,1.158,0.38c0.001-0.018,0.002-0.036,0.003-0.054c0.12-1.787,1.79-3.145,3.728-3.011c0.138,0.009,0.242,0.128,0.233,0.266c-0.009,0.138-0.123,0.258-0.266,0.232c-1.658-0.096-3.095,1.033-3.196,2.546c-0.012,0.183-0.004,0.368,0.023,0.55c0.017,0.109-0.041,0.217-0.141,0.264c-0.099,0.047-0.219,0.022-0.293-0.061c-0.322-0.362-0.777-0.58-1.282-0.614c-0.934-0.039-1.767,0.554-1.884,1.398c-0.01,0.071-0.05,0.135-0.11,0.175c-0.06,0.039-0.133,0.051-0.204,0.032c-0.187-0.051-0.377-0.083-0.564-0.096c-1.421-0.083-2.676,0.892-2.764,2.197C58.877,63.061,58.767,63.163,58.637,63.163z"/><path fill="#fdfcef" d="M85.823,57.951c-1.692-0.798-3.649-0.233-4.371,1.261c-0.09,0.186-0.156,0.377-0.2,0.571"/><path fill="#472b29" d="M81.252,60.034c-0.018,0-0.037-0.002-0.056-0.006c-0.135-0.031-0.219-0.165-0.188-0.3c0.049-0.217,0.123-0.427,0.219-0.625c0.78-1.616,2.89-2.233,4.703-1.379c0.125,0.06,0.179,0.208,0.12,0.333c-0.059,0.125-0.209,0.177-0.333,0.12c-1.567-0.741-3.378-0.226-4.04,1.144c-0.08,0.164-0.141,0.339-0.182,0.519C81.47,59.956,81.367,60.034,81.252,60.034z"/><path fill="#fff" d="M18.448 48.113H8.458c-.276 0-.5-.224-.5-.5s.224-.5.5-.5h9.989c.276 0 .5.224.5.5S18.724 48.113 18.448 48.113zM21.317 48.113h-1.44c-.276 0-.5-.224-.5-.5s.224-.5.5-.5h1.44c.276 0 .5.224.5.5S21.594 48.113 21.317 48.113zM25.355 48.113H22.82c-.276 0-.5-.224-.5-.5s.224-.5.5-.5h2.535c.276 0 .5.224.5.5S25.631 48.113 25.355 48.113zM25.355 49.97h-9.577c-.276 0-.5-.224-.5-.5s.224-.5.5-.5h9.577c.276 0 .5.224.5.5S25.631 49.97 25.355 49.97zM14.054 49.97h-.578c-.276 0-.5-.224-.5-.5s.224-.5.5-.5h.578c.276 0 .5.224.5.5S14.33 49.97 14.054 49.97zM11.686 49.97h-1.45c-.276 0-.5-.224-.5-.5s.224-.5.5-.5h1.45c.276 0 .5.224.5.5S11.963 49.97 11.686 49.97zM20.785 46.255h-5.007c-.276 0-.5-.224-.5-.5s.224-.5.5-.5h5.007c.276 0 .5.224.5.5S21.061 46.255 20.785 46.255zM20.785 44.399h-1.252c-.276 0-.5-.224-.5-.5s.224-.5.5-.5h1.252c.276 0 .5.224.5.5S21.061 44.399 20.785 44.399zM17.53 51.828h-1.751c-.276 0-.5-.224-.5-.5s.224-.5.5-.5h1.751c.276 0 .5.224.5.5S17.806 51.828 17.53 51.828zM71.408 21.944h-9.989c-.276 0-.5-.224-.5-.5s.224-.5.5-.5h9.989c.276 0 .5.224.5.5S71.684 21.944 71.408 21.944zM74.277 21.944h-1.44c-.276 0-.5-.224-.5-.5s.224-.5.5-.5h1.44c.276 0 .5.224.5.5S74.553 21.944 74.277 21.944zM78.315 21.944h-2.536c-.276 0-.5-.224-.5-.5s.224-.5.5-.5h2.536c.276 0 .5.224.5.5S78.591 21.944 78.315 21.944zM76.297 18.229h-9.577c-.276 0-.5-.224-.5-.5s.224-.5.5-.5h9.577c.276 0 .5.224.5.5S76.574 18.229 76.297 18.229zM64.996 18.229h-.578c-.276 0-.5-.224-.5-.5s.224-.5.5-.5h.578c.276 0 .5.224.5.5S65.272 18.229 64.996 18.229zM62.629 18.229h-1.45c-.276 0-.5-.224-.5-.5s.224-.5.5-.5h1.45c.276 0 .5.224.5.5S62.905 18.229 62.629 18.229zM73.744 20.087h-5.007c-.276 0-.5-.224-.5-.5s.224-.5.5-.5h5.007c.276 0 .5.224.5.5S74.021 20.087 73.744 20.087z"/><path fill="#fff" d="M73.744 18.229h-1.252c-.276 0-.5-.224-.5-.5s.224-.5.5-.5h1.252c.276 0 .5.224.5.5S74.021 18.229 73.744 18.229zM67.288 20.087h-1.751c-.276 0-.5-.224-.5-.5s.224-.5.5-.5h1.751c.276 0 .5.224.5.5S67.565 20.087 67.288 20.087z"/><path fill="#fdfcee" d="M49.256,69.838H29.367c-2.105,0-3.827-1.722-3.827-3.827V42.655c0-2.105,1.722-3.827,3.827-3.827l41.99,0.297V66.41"/><path fill="#472b29" d="M49.256,70.538H29.367c-2.497,0-4.528-2.031-4.528-4.527V42.655c0-2.496,2.031-4.527,4.528-4.527l41.995,0.297c0.385,0.003,0.695,0.315,0.695,0.7v27.286c0,0.387-0.313,0.7-0.7,0.7s-0.7-0.313-0.7-0.7V39.82l-41.295-0.292c-1.72,0-3.123,1.402-3.123,3.127V66.01c0,1.725,1.403,3.127,3.127,3.127h19.889c0.387,0,0.7,0.313,0.7,0.7S49.643,70.538,49.256,70.538z"/><path fill="#472b29" d="M42.585 53.097c-.1 0-.201-.03-.289-.092L26.067 41.5c-.226-.16-.278-.472-.119-.697.159-.226.471-.277.697-.119l16.229 11.506c.226.16.278.472.119.697C42.896 53.024 42.742 53.097 42.585 53.097zM54.569 53.049c-.16 0-.317-.076-.414-.218-.156-.229-.097-.539.131-.695l16.789-11.458c.228-.154.54-.097.695.131.156.229.097.54-.131.695L54.85 52.962C54.764 53.021 54.666 53.049 54.569 53.049zM72.458 67.397c-.093 0-.188-.026-.271-.081L48.952 52.237c-.35-.225-.831-.218-1.17.02l-21.44 15.05c-.227.159-.538.104-.696-.122-.159-.226-.104-.538.122-.696l21.44-15.05c.675-.474 1.596-.488 2.289-.04l23.235 15.08c.232.149.298.46.147.691C72.782 67.317 72.621 67.397 72.458 67.397z"/><path fill="#fdfcee" d="M65.446,43.369v-8.601c-4.34-3.844-6.819-6.04-11.159-9.884H43.918H38.9h-1.561H36.64c-2.647,0-4.813,1.918-4.813,4.263v13.555"/><path fill="#472b29" d="M65.446,44.069c-0.387,0-0.7-0.313-0.7-0.7v-8.285l-10.725-9.499H36.64c-2.268,0-4.113,1.598-4.113,3.562v13.555c0,0.387-0.313,0.7-0.7,0.7c-0.387,0-0.7-0.313-0.7-0.7V29.147c0-2.736,2.473-4.963,5.513-4.963h17.647c0.171,0,0.336,0.062,0.464,0.176l11.159,9.884c0.15,0.133,0.236,0.324,0.236,0.524v8.601C66.146,43.755,65.833,44.069,65.446,44.069z"/><path fill="#cdcbbd" d="M53.981,25.203v5.428c0,2.343,2.202,4.26,4.893,4.26h6.235"/><path fill="#472b29" d="M65.109,35.391h-6.235c-2.974,0-5.394-2.135-5.394-4.76v-5.429c0-0.276,0.224-0.5,0.5-0.5s0.5,0.224,0.5,0.5v5.429c0,2.073,1.971,3.76,4.394,3.76h6.235c0.276,0,0.5,0.224,0.5,0.5S65.386,35.391,65.109,35.391z"/><path fill="#f1bc19" d="M61.752,64.181v2.977c0,0.818,3.953,1.482,8.829,1.482s8.829-0.663,8.829-1.482v-2.977H61.752z"/><path fill="#472b29" d="M70.581,69.015c-0.942,0-9.204-0.052-9.204-1.857v-2.977c0-0.207,0.168-0.375,0.375-0.375h17.659c0.207,0,0.375,0.168,0.375,0.375v2.977C79.786,68.963,71.523,69.015,70.581,69.015z M62.127,64.556v2.602c0.212,0.346,3.003,1.107,8.454,1.107c5.452,0,8.243-0.762,8.463-1.15l-0.008-2.559H62.127z"/><path fill="#ffd683" d="M70.581 62.706A8.829 1.482 0 1 0 70.581 65.67A8.829 1.482 0 1 0 70.581 62.706Z"/><path fill="#472b29" d="M70.581,66.045c-0.942,0-9.204-0.052-9.204-1.856c0-1.806,8.262-1.857,9.204-1.857s9.205,0.052,9.205,1.857C79.786,65.993,71.523,66.045,70.581,66.045z M70.581,63.081c-5.451,0-8.242,0.762-8.463,1.15c0.221,0.303,3.012,1.063,8.463,1.063c5.258,0,8.041-0.708,8.43-1.106C78.621,63.789,75.838,63.081,70.581,63.081z M79.044,64.231h0.009H79.044z"/><path fill="#f1bc19" d="M61.752,59.26v2.977c0,0.818,3.953,1.482,8.829,1.482s8.829-0.663,8.829-1.482V59.26H61.752z"/><path fill="#472b29" d="M70.581,64.094c-0.942,0-9.204-0.052-9.204-1.857V59.26c0-0.207,0.168-0.375,0.375-0.375h17.659c0.207,0,0.375,0.168,0.375,0.375v2.977C79.786,64.043,71.523,64.094,70.581,64.094z M62.127,59.635v2.602c0.212,0.346,3.003,1.107,8.454,1.107c5.452,0,8.243-0.762,8.463-1.15l-0.008-2.559H62.127z"/><path fill="#ffd683" d="M70.581 57.785000000000004A8.829 1.482 0 1 0 70.581 60.749A8.829 1.482 0 1 0 70.581 57.785000000000004Z"/><path fill="#472b29" d="M70.581,61.124c-0.942,0-9.204-0.052-9.204-1.856c0-1.806,8.262-1.857,9.204-1.857s9.205,0.052,9.205,1.857C79.786,61.072,71.523,61.124,70.581,61.124z M70.581,58.16c-5.451,0-8.242,0.762-8.463,1.15c0.221,0.303,3.012,1.063,8.463,1.063c5.258,0,8.041-0.708,8.43-1.106C78.621,58.868,75.838,58.16,70.581,58.16z M79.044,59.31h0.009H79.044z"/><path fill="#f1bc19" d="M61.752,54.34v2.977c0,0.818,3.953,1.482,8.829,1.482c4.876,0,8.829-0.663,8.829-1.482V54.34H61.752z"/><path fill="#472b29" d="M70.581,59.173c-0.942,0-9.204-0.052-9.204-1.856v-2.978c0-0.207,0.168-0.375,0.375-0.375h17.659c0.207,0,0.375,0.168,0.375,0.375v2.978C79.786,59.122,71.523,59.173,70.581,59.173z M62.127,54.714v2.603c0.212,0.346,3.003,1.106,8.454,1.106c5.452,0,8.243-0.761,8.463-1.149l-0.008-2.56H62.127z"/><path fill="#ffd683" d="M70.581 52.864A8.829 1.482 0 1 0 70.581 55.827999999999996A8.829 1.482 0 1 0 70.581 52.864Z"/><path fill="#472b29" d="M70.581,56.203c-0.942,0-9.204-0.052-9.204-1.856s8.262-1.856,9.204-1.856s9.205,0.052,9.205,1.856S71.523,56.203,70.581,56.203z M70.581,53.24c-5.451,0-8.242,0.761-8.463,1.149c0.221,0.303,3.012,1.063,8.463,1.063c5.257,0,8.041-0.708,8.43-1.106C78.621,53.948,75.838,53.24,70.581,53.24z M79.044,54.389h0.009H79.044z"/><path fill="#f1bc19" d="M61.752,49.419v2.977c0,0.818,3.953,1.482,8.829,1.482c4.876,0,8.829-0.663,8.829-1.482v-2.977H61.752z"/><path fill="#472b29" d="M70.581,54.253c-0.942,0-9.204-0.052-9.204-1.856v-2.978c0-0.207,0.168-0.375,0.375-0.375h17.659c0.207,0,0.375,0.168,0.375,0.375v2.978C79.786,54.201,71.523,54.253,70.581,54.253z M62.127,49.794v2.603c0.212,0.346,3.003,1.106,8.454,1.106c5.452,0,8.243-0.761,8.463-1.149l-0.008-2.56H62.127z"/><path fill="#ffd683" d="M70.581 47.943A8.829 1.482 0 1 0 70.581 50.907A8.829 1.482 0 1 0 70.581 47.943Z"/><path fill="#472b29" d="M70.581,51.283c-0.942,0-9.204-0.052-9.204-1.857c0-1.805,8.262-1.856,9.204-1.856s9.205,0.052,9.205,1.856C79.786,51.231,71.523,51.283,70.581,51.283z M70.581,48.319c-5.451,0-8.242,0.761-8.463,1.149c0.221,0.303,3.012,1.064,8.463,1.064c5.257,0,8.041-0.708,8.43-1.107C78.621,49.027,75.839,48.319,70.581,48.319z M79.044,49.468h0.009H79.044z"/><path fill="#f1bc19" d="M53.415,66.104v2.977c0,0.818,3.953,1.482,8.829,1.482s8.829-0.663,8.829-1.482v-2.977H53.415z"/><path fill="#472b29" d="M62.244,70.938c-0.942,0-9.204-0.052-9.204-1.857v-2.977c0-0.207,0.168-0.375,0.375-0.375h17.659c0.207,0,0.375,0.168,0.375,0.375v2.977C71.449,70.886,63.186,70.938,62.244,70.938z M53.79,66.479v2.602c0.212,0.346,3.003,1.107,8.454,1.107c5.452,0,8.243-0.762,8.463-1.15L70.7,66.479H53.79z"/><path fill="#ffd683" d="M62.245 64.629A8.829 1.482 0 1 0 62.245 67.593A8.829 1.482 0 1 0 62.245 64.629Z"/><path fill="#472b29" d="M62.244,67.967c-0.942,0-9.204-0.052-9.204-1.856c0-1.806,8.262-1.857,9.204-1.857s9.205,0.052,9.205,1.857C71.449,67.916,63.186,67.967,62.244,67.967z M62.244,65.004c-5.451,0-8.242,0.762-8.463,1.15c0.221,0.303,3.012,1.063,8.463,1.063c5.258,0,8.041-0.708,8.43-1.106C70.285,65.712,67.502,65.004,62.244,65.004z M70.708,66.154h0.009H70.708z"/><path fill="#f1bc19" d="M53.415,61.182v2.977c0,0.818,3.953,1.482,8.829,1.482s8.829-0.663,8.829-1.482v-2.977H53.415z"/><path fill="#472b29" d="M62.244,66.016c-0.942,0-9.204-0.052-9.204-1.857v-2.977c0-0.207,0.168-0.375,0.375-0.375h17.659c0.207,0,0.375,0.168,0.375,0.375v2.977C71.449,65.964,63.186,66.016,62.244,66.016z M53.79,61.557v2.602c0.212,0.346,3.003,1.107,8.454,1.107c5.452,0,8.243-0.762,8.463-1.15L70.7,61.557H53.79z"/><path fill="#ffd683" d="M62.245 59.707A8.829 1.482 0 1 0 62.245 62.671A8.829 1.482 0 1 0 62.245 59.707Z"/><path fill="#472b29" d="M62.244,63.045c-0.942,0-9.204-0.052-9.204-1.856c0-1.806,8.262-1.857,9.204-1.857s9.205,0.052,9.205,1.857C71.449,62.994,63.186,63.045,62.244,63.045z M62.244,60.082c-5.452,0-8.243,0.762-8.463,1.15c0.221,0.303,3.012,1.063,8.463,1.063c5.258,0,8.041-0.708,8.43-1.106C70.286,60.79,67.504,60.082,62.244,60.082z M70.708,61.232h0.009H70.708z"/><path fill="#f1bc19" d="M53.415,56.49v2.977c0,0.818,3.953,1.482,8.829,1.482s8.829-0.663,8.829-1.482V56.49H53.415z"/><path fill="#472b29" d="M62.244,61.324c-0.942,0-9.204-0.052-9.204-1.856V56.49c0-0.207,0.168-0.375,0.375-0.375h17.659c0.207,0,0.375,0.168,0.375,0.375v2.978C71.449,61.272,63.186,61.324,62.244,61.324z M53.79,56.865v2.603c0.212,0.346,3.003,1.106,8.454,1.106c5.452,0,8.243-0.761,8.463-1.149l-0.008-2.56H53.79z"/><path fill="#ffd683" d="M62.245 55.015A8.829 1.482 0 1 0 62.245 57.979A8.829 1.482 0 1 0 62.245 55.015Z"/><path fill="#472b29" d="M62.244,58.353c-0.942,0-9.204-0.052-9.204-1.856c0-1.806,8.262-1.857,9.204-1.857s9.205,0.052,9.205,1.857C71.449,58.301,63.186,58.353,62.244,58.353z M62.244,55.389c-5.451,0-8.242,0.762-8.463,1.15c0.221,0.303,3.012,1.063,8.463,1.063c5.258,0,8.041-0.708,8.43-1.106C70.285,56.097,67.502,55.389,62.244,55.389z M70.708,56.54h0.009H70.708z"/><path fill="#f1bc19" d="M61.752,44.498v2.977c0,0.818,3.953,1.482,8.829,1.482s8.829-0.663,8.829-1.482v-2.977H61.752z"/><path fill="#472b29" d="M70.581,49.332c-0.942,0-9.204-0.052-9.204-1.856v-2.977c0-0.207,0.168-0.375,0.375-0.375h17.659c0.207,0,0.375,0.168,0.375,0.375v2.977C79.786,49.28,71.523,49.332,70.581,49.332z M62.127,44.874v2.602c0.212,0.346,3.003,1.106,8.454,1.106c5.452,0,8.243-0.761,8.463-1.149l-0.008-2.559H62.127z"/><g><path fill="#ffd683" d="M70.581 43.023A8.829 1.482 0 1 0 70.581 45.987A8.829 1.482 0 1 0 70.581 43.023Z"/><path fill="#472b29" d="M70.581,46.362c-0.942,0-9.204-0.052-9.204-1.857c0-1.805,8.262-1.856,9.204-1.856s9.205,0.052,9.205,1.856C79.786,46.31,71.523,46.362,70.581,46.362z M70.581,43.398c-5.451,0-8.242,0.761-8.463,1.149c0.221,0.303,3.012,1.064,8.463,1.064c5.257,0,8.041-0.708,8.43-1.107C78.621,44.106,75.839,43.398,70.581,43.398z M79.044,44.547h0.009H79.044z"/></g><g><path fill="#f1bc19" d="M61.752,39.577v2.977c0,0.818,3.953,1.482,8.829,1.482s8.829-0.663,8.829-1.482v-2.977H61.752z"/><path fill="#472b29" d="M70.581,44.412c-0.942,0-9.204-0.052-9.204-1.857v-2.977c0-0.207,0.168-0.375,0.375-0.375h17.659c0.207,0,0.375,0.168,0.375,0.375v2.977C79.786,44.36,71.523,44.412,70.581,44.412z M62.127,39.953v2.602c0.212,0.346,3.003,1.107,8.454,1.107c5.452,0,8.243-0.762,8.463-1.15l-0.008-2.559H62.127z"/><g><path fill="#ffd683" d="M70.581 38.102000000000004A8.829 1.482 0 1 0 70.581 41.066A8.829 1.482 0 1 0 70.581 38.102000000000004Z"/><path fill="#472b29" d="M70.581,41.441c-0.942,0-9.204-0.052-9.204-1.857c0-1.805,8.262-1.856,9.204-1.856s9.205,0.052,9.205,1.856C79.786,41.389,71.523,41.441,70.581,41.441z M70.581,38.477c-5.451,0-8.242,0.761-8.463,1.149c0.22,0.303,3.011,1.064,8.463,1.064c5.259,0,8.042-0.708,8.43-1.107C78.622,39.185,75.839,38.477,70.581,38.477z M79.044,39.627h0.009H79.044z"/></g></g><g><path fill="#fdfcef" d="M35.557,72.69c1.876,0,3.502,0,3.526,0c2.101,0,3.805-1.667,3.805-3.724c0-1.794-1.297-3.292-3.023-3.645c0.02-0.157,0.033-0.316,0.033-0.478c0-2.13-1.764-3.857-3.941-3.857c-1.285,0-2.423,0.605-3.142,1.536c-0.184-2.371-2.348-4.2-4.88-3.897c-1.851,0.222-3.383,1.622-3.723,3.417c-0.109,0.576-0.098,1.134,0.011,1.659c-0.496-0.523-1.203-0.853-1.99-0.853c-1.44,0-2.616,1.097-2.709,2.484c-0.654-0.142-1.365-0.132-2.115,0.143c-1.432,0.526-2.452,1.846-2.512,3.342c-0.085,2.125,1.65,3.873,3.802,3.873c0.163,0,0.738,0,0.87,0h7.901 M29.107,72.69h0.358"/><path fill="#472b29" d="M39.083,73.19h-3.526c-0.276,0-0.5-0.224-0.5-0.5s0.224-0.5,0.5-0.5h3.526c1.822,0,3.305-1.446,3.305-3.225c0-1.517-1.103-2.844-2.623-3.154c-0.256-0.053-0.429-0.294-0.396-0.554c0.018-0.136,0.029-0.273,0.029-0.415c0-1.851-1.543-3.356-3.44-3.356c-1.087,0-2.088,0.489-2.747,1.342c-0.126,0.164-0.34,0.23-0.539,0.174c-0.198-0.06-0.339-0.234-0.355-0.44c-0.079-1.015-0.563-1.935-1.362-2.591c-0.824-0.677-1.876-0.977-2.959-0.85c-1.639,0.196-2.992,1.436-3.292,3.015c-0.093,0.491-0.09,0.984,0.01,1.464c0.045,0.219-0.06,0.441-0.258,0.545c-0.197,0.103-0.44,0.063-0.594-0.1c-0.426-0.449-1.003-0.696-1.627-0.696c-1.164,0-2.134,0.886-2.21,2.017c-0.01,0.146-0.082,0.279-0.198,0.366s-0.264,0.121-0.407,0.089c-0.635-0.137-1.235-0.097-1.836,0.125c-1.256,0.46-2.133,1.623-2.185,2.893c-0.035,0.87,0.282,1.699,0.891,2.333c0.632,0.657,1.488,1.02,2.412,1.02h8.771c0.276,0,0.5,0.224,0.5,0.5s-0.224,0.5-0.5,0.5H18.7c-1.181,0-2.322-0.483-3.133-1.327c-0.799-0.831-1.214-1.921-1.169-3.065c0.067-1.67,1.208-3.193,2.839-3.792c0.608-0.224,1.237-0.304,1.872-0.244c0.344-1.39,1.624-2.413,3.125-2.413c0.49,0,0.971,0.112,1.405,0.32c0.009-0.239,0.037-0.479,0.082-0.72c0.38-2.002,2.089-3.573,4.155-3.82c1.353-0.162,2.675,0.217,3.713,1.068c0.744,0.61,1.271,1.402,1.539,2.29c0.788-0.645,1.777-1.001,2.83-1.001c2.448,0,4.44,1.954,4.44,4.356c0,0.033,0,0.067-0.001,0.101c1.757,0.554,2.991,2.181,2.991,4.022C43.388,71.295,41.457,73.19,39.083,73.19z M29.465,73.19h-0.358c-0.276,0-0.5-0.224-0.5-0.5s0.224-0.5,0.5-0.5h0.358c0.276,0,0.5,0.224,0.5,0.5S29.741,73.19,29.465,73.19z"/><path fill="#472b29" d="M37.383,67.41c-0.018,0-0.036-0.002-0.055-0.006c-0.135-0.03-0.219-0.164-0.189-0.299c0.037-0.165,0.094-0.326,0.169-0.478c0.603-1.22,2.264-1.671,3.708-1.003c0.125,0.058,0.18,0.206,0.122,0.331c-0.059,0.126-0.206,0.18-0.332,0.122c-1.2-0.555-2.567-0.207-3.05,0.771c-0.057,0.116-0.101,0.239-0.129,0.366C37.6,67.331,37.497,67.41,37.383,67.41z"/><g><path fill="#472b29" d="M32.245,73.19h-1.103c-0.276,0-0.5-0.224-0.5-0.5s0.224-0.5,0.5-0.5h1.103c0.276,0,0.5,0.224,0.5,0.5S32.521,73.19,32.245,73.19z"/></g></g><g><path fill="#e1e0d8" d="M46.969,40.583c0.002,2.933-1.808,5.707-4.921,7.54l0,0c0,1.584,0.462,3.338,1.039,4.454c0.205,0.396-0.116,0.857-0.559,0.809c-2.872-0.315-5.594-1.734-7.04-3.152h-1.64c-7.247,0-13.121-4.321-13.121-9.651s5.875-9.651,13.121-9.651S46.969,35.253,46.969,40.583"/><path fill="#472b29" d="M42.59,53.889c-0.039,0-0.078-0.003-0.117-0.007c-2.99-0.328-5.722-1.794-7.186-3.149h-1.44c-7.511,0-13.621-4.554-13.621-10.15s6.11-10.15,13.621-10.15s13.622,4.554,13.622,10.15l0,0c0.002,3.05-1.785,5.886-4.916,7.819c0.052,1.517,0.517,3.054,0.978,3.945c0.179,0.347,0.153,0.762-0.067,1.082C43.265,53.719,42.937,53.888,42.59,53.889z M33.847,31.432c-6.959,0-12.621,4.104-12.621,9.15s5.662,9.15,12.621,9.15h1.64c0.131,0,0.257,0.052,0.35,0.143c1.298,1.273,3.887,2.699,6.745,3.013l0.504-0.312l-0.444,0.229c-0.665-1.287-1.094-3.125-1.094-4.684c0-0.177,0.094-0.341,0.246-0.431c2.973-1.751,4.677-4.342,4.674-7.109l0,0C46.469,35.537,40.807,31.432,33.847,31.432z M47.469,40.583h0.01H47.469z"/><path fill="#472b29" d="M31.379 36.985h-3.613c-.11 0-.2-.09-.2-.2s.09-.2.2-.2h3.613c.11 0 .2.09.2.2S31.49 36.985 31.379 36.985zM40.613 36.985h-7.627c-.11 0-.2-.09-.2-.2s.09-.2.2-.2h7.627c.11 0 .2.09.2.2S40.723 36.985 40.613 36.985zM36.197 39.394H26.161c-.11 0-.2-.09-.2-.2s.09-.2.2-.2h10.036c.11 0 .2.09.2.2S36.307 39.394 36.197 39.394zM42.619 39.394h-4.817c-.11 0-.2-.09-.2-.2s.09-.2.2-.2h4.817c.11 0 .2.09.2.2S42.73 39.394 42.619 39.394zM42.619 41.802H30.175c-.11 0-.2-.09-.2-.2s.09-.2.2-.2h12.444c.11 0 .2.09.2.2S42.73 41.802 42.619 41.802zM40.613 44.613h-7.167c-.11 0-.2-.09-.2-.2s.09-.2.2-.2h7.167c.11 0 .2.09.2.2S40.723 44.613 40.613 44.613z"/><g><path fill="#ee3e54" d="M26.478 42.421A5.005 5.005 0 1 0 26.478 52.431000000000004A5.005 5.005 0 1 0 26.478 42.421Z"/><path fill="#472b29" d="M26.478,52.931c-3.036,0-5.505-2.47-5.505-5.506c0-3.035,2.469-5.505,5.505-5.505s5.505,2.47,5.505,5.505C31.983,50.462,29.514,52.931,26.478,52.931z M26.478,42.92c-2.484,0-4.505,2.021-4.505,4.505s2.021,4.506,4.505,4.506c2.484,0,4.505-2.021,4.505-4.506S28.962,42.92,26.478,42.92z"/></g><g><path fill="#fdfcef" d="M28.586 47.872c-.204-.202-.448-.305-.726-.305-.282 0-.528.103-.73.306-.204.203-.307.449-.307.73 0 .278.101.522.302.726.201.203.448.306.735.306.284 0 .529-.104.73-.307.201-.204.302-.448.302-.724C28.892 48.322 28.789 48.076 28.586 47.872zM28.234 48.603c0 .102-.036.187-.111.263-.15.152-.387.146-.531 0-.075-.076-.111-.161-.111-.263 0-.105.037-.192.113-.267.074-.075.161-.112.267-.112.101 0 .187.037.262.112C28.198 48.411 28.234 48.499 28.234 48.603zM26.133 46.251c0-.284-.103-.529-.307-.731-.204-.201-.448-.303-.73-.303-.28 0-.525.102-.727.303-.203.202-.306.448-.306.731 0 .278.101.523.302.727.201.205.448.307.73.307.286 0 .533-.103.734-.307C26.032 46.774 26.133 46.529 26.133 46.251zM25.475 46.251c0 .104-.036.19-.11.266-.148.147-.38.151-.532 0-.075-.075-.111-.162-.111-.266 0-.105.036-.192.11-.267.075-.074.161-.11.265-.11.105 0 .192.036.267.11C25.439 46.06 25.475 46.146 25.475 46.251z"/><path fill="#fdfcef" d="M28.173,45.262c-0.016-0.028-0.047-0.045-0.08-0.045h-1.645c-0.052,0-0.093,0.041-0.093,0.093v0.472c0,0.052,0.041,0.093,0.093,0.093h0.78l-2.038,3.622c-0.016,0.028-0.016,0.064,0.001,0.093c0.016,0.028,0.047,0.045,0.08,0.045h0.472c0.034,0,0.065-0.018,0.082-0.047l2.35-4.232C28.19,45.326,28.19,45.29,28.173,45.262z"/></g></g></svg>